<svg id="Layer_1" data-name="Layer 1" xmlns="http://www.w3.org/2000/svg" viewBox="0 0 406 194"><defs><style>.cls-1,.cls-3,.cls-4{fill:#fff;}.cls-2{fill:#9381ff;}.cls-3,.cls-4{stroke:#fff;stroke-miterlimit:10;}.cls-4{stroke-linecap:round;stroke-width:3px;}</style></defs><g id="Main_Logo" data-name="Main Logo"><path d="M129.83,111.15V74.78h8.79V104h15.12v7.14Z"/><path d="M158.29,111.15V74.78h8.79V104H182.2v7.14Z"/><path d="M208.75,74.78h8.77V98.24A12.43,12.43,0,0,1,210.19,110a20.68,20.68,0,0,1-16.14,0,12.65,12.65,0,0,1-5.38-4.66,12.84,12.84,0,0,1-1.92-7.07V74.78h8.79v22.7a6.73,6.73,0,0,0,.82,3.35,6,6,0,0,0,2.32,2.31,7.63,7.63,0,0,0,6.92,0,6,6,0,0,0,2.31-2.31,6.64,6.64,0,0,0,.84-3.35Z"/><path d="M222.9,111.15v-5l17.66-24.22H222.92V74.78h28.76v5L234,104h17.65v7.14Z"/><path d="M265.85,74.78v36.37h-8.79V74.78Z"/><path d="M305.67,93a20.72,20.72,0,0,1-2.31,10.17,15.81,15.81,0,0,1-6.24,6.34,18,18,0,0,1-8.81,2.16,17.81,17.81,0,0,1-8.83-2.18,15.85,15.85,0,0,1-6.22-6.35A20.74,20.74,0,0,1,271,93a20.84,20.84,0,0,1,2.3-10.18,15.76,15.76,0,0,1,6.22-6.34,19.09,19.09,0,0,1,17.64,0,15.81,15.81,0,0,1,6.24,6.34A20.73,20.73,0,0,1,305.67,93Zm-9,0a15.9,15.9,0,0,0-1-6,8.16,8.16,0,0,0-11.87-3.71A8,8,0,0,0,280.93,87a18.53,18.53,0,0,0,0,12,7.47,7.47,0,0,0,7.38,5,7.45,7.45,0,0,0,7.37-5A15.88,15.88,0,0,0,296.69,93Z"/><path d="M341.73,74.78v36.37h-7.46l-14.47-21h-.23v21h-8.79V74.78h7.57l14.31,21h.3v-21Z"/><path d="M347.11,111.15v-5l17.67-24.22H347.13V74.78h28.76v5L358.23,104h17.64v7.14Z"/><path class="cls-1" d="M129.83,111.15V74.78h8.79V104h15.12v7.14Z"/><path class="cls-1" d="M158.29,111.15V74.78h8.79V104H182.2v7.14Z"/><path class="cls-1" d="M208.75,74.78h8.77V98.24A12.43,12.43,0,0,1,210.19,110a20.68,20.68,0,0,1-16.14,0,12.65,12.65,0,0,1-5.38-4.66,12.84,12.84,0,0,1-1.92-7.07V74.78h8.79v22.7a6.73,6.73,0,0,0,.82,3.35,6,6,0,0,0,2.32,2.31,7.63,7.63,0,0,0,6.92,0,6,6,0,0,0,2.31-2.31,6.64,6.64,0,0,0,.84-3.35Z"/><path class="cls-1" d="M222.9,111.15v-5l17.66-24.22H222.92V74.78h28.76v5L234,104h17.65v7.14Z"/><path class="cls-1" d="M265.85,74.78v36.37h-8.79V74.78Z"/><path class="cls-1" d="M305.67,93a20.72,20.72,0,0,1-2.31,10.17,15.81,15.81,0,0,1-6.24,6.34,18,18,0,0,1-8.81,2.16,17.81,17.81,0,0,1-8.83-2.18,15.85,15.85,0,0,1-6.22-6.35A20.74,20.74,0,0,1,271,93a20.84,20.84,0,0,1,2.3-10.18,15.76,15.76,0,0,1,6.22-6.34,19.09,19.09,0,0,1,17.64,0,15.81,15.81,0,0,1,6.24,6.34A20.73,20.73,0,0,1,305.67,93Zm-9,0a15.9,15.9,0,0,0-1-6,8.16,8.16,0,0,0-11.87-3.71A8,8,0,0,0,280.93,87a18.53,18.53,0,0,0,0,12,7.47,7.47,0,0,0,7.38,5,7.45,7.45,0,0,0,7.37-5A15.88,15.88,0,0,0,296.69,93Z"/><path class="cls-1" d="M341.73,74.78v36.37h-7.46l-14.47-21h-.23v21h-8.79V74.78h7.57l14.31,21h.3v-21Z"/><path class="cls-1" d="M347.11,111.15v-5l17.67-24.22H347.13V74.78h28.76v5L358.23,104h17.64v7.14Z"/><path class="cls-2" d="M169.35,134.5a3.94,3.94,0,0,0-1.58-2.86,5.77,5.77,0,0,0-3.54-1.06,6.25,6.25,0,0,0-2.64.52,4.25,4.25,0,0,0-1.79,1.42,3.47,3.47,0,0,0-.64,2.06,2.87,2.87,0,0,0,.37,1.49,3.45,3.45,0,0,0,1,1.1,7.37,7.37,0,0,0,1.38.78,12.88,12.88,0,0,0,1.54.55l2.27.65a17.44,17.44,0,0,1,2.06.72,9,9,0,0,1,1.88,1.11,5,5,0,0,1,1.37,1.63,4.71,4.71,0,0,1,.52,2.3,5.54,5.54,0,0,1-.89,3.1,6.11,6.11,0,0,1-2.56,2.17,9.09,9.09,0,0,1-4,.81,9.31,9.31,0,0,1-3.81-.73,6.2,6.2,0,0,1-2.54-2,5.78,5.78,0,0,1-1-3h2a3.77,3.77,0,0,0,.84,2.15,4.68,4.68,0,0,0,1.91,1.34,7.27,7.27,0,0,0,2.62.45,7.19,7.19,0,0,0,2.86-.54,4.65,4.65,0,0,0,2-1.51,3.7,3.7,0,0,0,.72-2.26,3,3,0,0,0-.56-1.83,4.48,4.48,0,0,0-1.58-1.25,15,15,0,0,0-2.35-.89l-2.57-.75a9.67,9.67,0,0,1-3.93-2.09,4.51,4.51,0,0,1-1.39-3.4,5.15,5.15,0,0,1,.93-3,6.19,6.19,0,0,1,2.52-2.06,8.41,8.41,0,0,1,3.57-.74,8.16,8.16,0,0,1,3.55.73,6.2,6.2,0,0,1,2.45,2,5.31,5.31,0,0,1,1,2.92Z"/><path class="cls-2" d="M190.42,130.89v-1.77H206v1.77H199.2v19.73h-2V130.89Z"/><path class="cls-2" d="M240.23,129.12h2v14.24a7.57,7.57,0,0,1-1,3.92,7.42,7.42,0,0,1-2.86,2.72,9.6,9.6,0,0,1-8.51,0,7.28,7.28,0,0,1-2.86-2.72,7.44,7.44,0,0,1-1-3.91V129.12h2v14.1a6,6,0,0,0,.77,3.05,5.5,5.5,0,0,0,2.15,2.1,7.31,7.31,0,0,0,6.53,0,5.37,5.37,0,0,0,2.15-2.1,6,6,0,0,0,.76-3.05Z"/><path class="cls-2" d="M270.07,150.62h-6.3v-21.5h6.67a10.31,10.31,0,0,1,5.27,1.28,8.43,8.43,0,0,1,3.35,3.68,14.64,14.64,0,0,1,0,11.54,8.4,8.4,0,0,1-3.46,3.71A11,11,0,0,1,270.07,150.62Zm-4.34-1.76H270a9.05,9.05,0,0,0,4.64-1.1,6.78,6.78,0,0,0,2.8-3.11,11.49,11.49,0,0,0,.94-4.83,11.79,11.79,0,0,0-.92-4.79,6.73,6.73,0,0,0-2.69-3.07,8.33,8.33,0,0,0-4.39-1.07h-4.6Z"/><path class="cls-2" d="M302.78,129.12v21.5h-2v-21.5Z"/><path class="cls-2" d="M342,139.87a13.26,13.26,0,0,1-1.2,5.84,9.07,9.07,0,0,1-3.29,3.84,9.19,9.19,0,0,1-9.62,0,9.14,9.14,0,0,1-3.29-3.84,14.93,14.93,0,0,1,0-11.68,9.34,9.34,0,0,1,3.29-3.84,9.19,9.19,0,0,1,9.62,0,9.19,9.19,0,0,1,3.29,3.84A13.29,13.29,0,0,1,342,139.87Zm-1.91,0a11.53,11.53,0,0,0-1-5,7.42,7.42,0,0,0-2.63-3.15,7.12,7.12,0,0,0-7.57,0,7.51,7.51,0,0,0-2.64,3.15,11.62,11.62,0,0,0-1,5,11.5,11.5,0,0,0,1,4.95,7.42,7.42,0,0,0,2.63,3.15,7.1,7.1,0,0,0,7.59,0,7.3,7.3,0,0,0,2.63-3.15A11.33,11.33,0,0,0,340.11,139.87Z"/><path class="cls-2" d="M373.9,134.5a3.92,3.92,0,0,0-1.59-2.86,5.72,5.72,0,0,0-3.53-1.06,6.25,6.25,0,0,0-2.64.52,4.25,4.25,0,0,0-1.79,1.42,3.47,3.47,0,0,0-.64,2.06,3,3,0,0,0,.36,1.49,3.61,3.61,0,0,0,1,1.1,7.07,7.07,0,0,0,1.38.78,12.88,12.88,0,0,0,1.54.55l2.27.65a16.69,16.69,0,0,1,2.05.72A8.86,8.86,0,0,1,374.2,141a5,5,0,0,1,1.37,1.63,4.71,4.71,0,0,1,.52,2.3,5.62,5.62,0,0,1-.89,3.1,6.17,6.17,0,0,1-2.56,2.17,9.09,9.09,0,0,1-4,.81,9.31,9.31,0,0,1-3.81-.73,6.2,6.2,0,0,1-2.54-2,5.69,5.69,0,0,1-1-3h2a3.77,3.77,0,0,0,.84,2.15,4.68,4.68,0,0,0,1.91,1.34,7.85,7.85,0,0,0,5.48-.09,4.65,4.65,0,0,0,2-1.51,3.7,3.7,0,0,0,.72-2.26,3,3,0,0,0-.56-1.83,4.48,4.48,0,0,0-1.58-1.25,15,15,0,0,0-2.35-.89l-2.57-.75a9.6,9.6,0,0,1-3.93-2.09,4.51,4.51,0,0,1-1.39-3.4,5.15,5.15,0,0,1,.93-3,6.13,6.13,0,0,1,2.52-2.06,8.38,8.38,0,0,1,3.57-.74,8.16,8.16,0,0,1,3.55.73,6.28,6.28,0,0,1,2.45,2,5.31,5.31,0,0,1,1,2.92Z"/><path class="cls-1" d="M169.35,134.5a3.94,3.94,0,0,0-1.58-2.86,5.77,5.77,0,0,0-3.54-1.06,6.25,6.25,0,0,0-2.64.52,4.25,4.25,0,0,0-1.79,1.42,3.47,3.47,0,0,0-.64,2.06,2.87,2.87,0,0,0,.37,1.49,3.45,3.45,0,0,0,1,1.1,7.37,7.37,0,0,0,1.38.78,12.88,12.88,0,0,0,1.54.55l2.27.65a17.44,17.44,0,0,1,2.06.72,9,9,0,0,1,1.88,1.11,5,5,0,0,1,1.37,1.63,4.71,4.71,0,0,1,.52,2.3,5.54,5.54,0,0,1-.89,3.1,6.11,6.11,0,0,1-2.56,2.17,9.09,9.09,0,0,1-4,.81,9.31,9.31,0,0,1-3.81-.73,6.2,6.2,0,0,1-2.54-2,5.78,5.78,0,0,1-1-3h2a3.77,3.77,0,0,0,.84,2.15,4.68,4.68,0,0,0,1.91,1.34,7.27,7.27,0,0,0,2.62.45,7.19,7.19,0,0,0,2.86-.54,4.65,4.65,0,0,0,2-1.51,3.7,3.7,0,0,0,.72-2.26,3,3,0,0,0-.56-1.83,4.48,4.48,0,0,0-1.58-1.25,15,15,0,0,0-2.35-.89l-2.57-.75a9.67,9.67,0,0,1-3.93-2.09,4.51,4.51,0,0,1-1.39-3.4,5.15,5.15,0,0,1,.93-3,6.19,6.19,0,0,1,2.52-2.06,8.41,8.41,0,0,1,3.57-.74,8.16,8.16,0,0,1,3.55.73,6.2,6.2,0,0,1,2.45,2,5.31,5.31,0,0,1,1,2.92Z"/><path class="cls-1" d="M190.42,130.89v-1.77H206v1.77H199.2v19.73h-2V130.89Z"/><path class="cls-1" d="M240.23,129.12h2v14.24a7.57,7.57,0,0,1-1,3.92,7.42,7.42,0,0,1-2.86,2.72,9.6,9.6,0,0,1-8.51,0,7.28,7.28,0,0,1-2.86-2.72,7.44,7.44,0,0,1-1-3.91V129.12h2v14.1a6,6,0,0,0,.77,3.05,5.5,5.5,0,0,0,2.15,2.1,7.31,7.31,0,0,0,6.53,0,5.37,5.37,0,0,0,2.15-2.1,6,6,0,0,0,.76-3.05Z"/><path class="cls-1" d="M270.07,150.62h-6.3v-21.5h6.67a10.31,10.31,0,0,1,5.27,1.28,8.43,8.43,0,0,1,3.35,3.68,14.64,14.64,0,0,1,0,11.54,8.4,8.4,0,0,1-3.46,3.71A11,11,0,0,1,270.07,150.62Zm-4.34-1.76H270a9.05,9.05,0,0,0,4.64-1.1,6.78,6.78,0,0,0,2.8-3.11,11.49,11.49,0,0,0,.94-4.83,11.79,11.79,0,0,0-.92-4.79,6.73,6.73,0,0,0-2.69-3.07,8.33,8.33,0,0,0-4.39-1.07h-4.6Z"/><path class="cls-1" d="M302.78,129.12v21.5h-2v-21.5Z"/><path class="cls-1" d="M342,139.87a13.26,13.26,0,0,1-1.2,5.84,9.07,9.07,0,0,1-3.29,3.84,9.19,9.19,0,0,1-9.62,0,9.14,9.14,0,0,1-3.29-3.84,14.93,14.93,0,0,1,0-11.68,9.34,9.34,0,0,1,3.29-3.84,9.19,9.19,0,0,1,9.62,0,9.19,9.19,0,0,1,3.29,3.84A13.29,13.29,0,0,1,342,139.87Zm-1.91,0a11.53,11.53,0,0,0-1-5,7.42,7.42,0,0,0-2.63-3.15,7.12,7.12,0,0,0-7.57,0,7.51,7.51,0,0,0-2.64,3.15,11.62,11.62,0,0,0-1,5,11.5,11.5,0,0,0,1,4.95,7.42,7.42,0,0,0,2.63,3.15,7.1,7.1,0,0,0,7.59,0,7.3,7.3,0,0,0,2.63-3.15A11.33,11.33,0,0,0,340.11,139.87Z"/><path class="cls-1" d="M373.9,134.5a3.92,3.92,0,0,0-1.59-2.86,5.72,5.72,0,0,0-3.53-1.06,6.25,6.25,0,0,0-2.64.52,4.25,4.25,0,0,0-1.79,1.42,3.47,3.47,0,0,0-.64,2.06,3,3,0,0,0,.36,1.49,3.61,3.61,0,0,0,1,1.1,7.07,7.07,0,0,0,1.38.78,12.88,12.88,0,0,0,1.54.55l2.27.65a16.69,16.69,0,0,1,2.05.72A8.86,8.86,0,0,1,374.2,141a5,5,0,0,1,1.37,1.63,4.71,4.71,0,0,1,.52,2.3,5.62,5.62,0,0,1-.89,3.1,6.17,6.17,0,0,1-2.56,2.17,9.09,9.09,0,0,1-4,.81,9.31,9.31,0,0,1-3.81-.73,6.2,6.2,0,0,1-2.54-2,5.69,5.69,0,0,1-1-3h2a3.77,3.77,0,0,0,.84,2.15,4.68,4.68,0,0,0,1.91,1.34,7.85,7.85,0,0,0,5.48-.09,4.65,4.65,0,0,0,2-1.51,3.7,3.7,0,0,0,.72-2.26,3,3,0,0,0-.56-1.83,4.48,4.48,0,0,0-1.58-1.25,15,15,0,0,0-2.35-.89l-2.57-.75a9.6,9.6,0,0,1-3.93-2.09,4.51,4.51,0,0,1-1.39-3.4,5.15,5.15,0,0,1,.93-3,6.13,6.13,0,0,1,2.52-2.06,8.38,8.38,0,0,1,3.57-.74,8.16,8.16,0,0,1,3.55.73,6.28,6.28,0,0,1,2.45,2,5.31,5.31,0,0,1,1,2.92Z"/><rect id="Divider" class="cls-3" x="158.23" y="118.72" width="217.63" height="1.49"/><g id="Cube"><g id="Cube-2" data-name="Cube"><path class="cls-4" d="M100.83,28.32,30.14,51.8Z"/><line class="cls-4" x1="110.21" y1="162.81" x2="100.83" y2="165.93"/><line class="cls-4" x1="147.28" y1="150.5" x2="110.21" y2="162.81"/><line class="cls-4" x1="171.52" y1="51.8" x2="100.83" y2="75.28"/><line class="cls-4" x1="30.14" y1="142.45" x2="100.83" y2="165.93"/><line class="cls-4" x1="30.14" y1="51.8" x2="100.83" y2="75.28"/><line class="cls-4" x1="100.83" y1="28.32" x2="171.52" y2="51.8"/><line class="cls-4" x1="30.14" y1="51.8" x2="30.14" y2="142.45"/><line class="cls-4" x1="171.52" y1="51.8" x2="171.52" y2="61.51"/><line class="cls-4" x1="100.83" y1="75.28" x2="100.83" y2="165.93"/></g><g id="I_In_Cube" data-name="I In Cube"><path class="cls-1" d="M90.69,140.57V62.22h18.93v78.35Z"/><path class="cls-1" d="M73.18,156.2l55.95-18.59a1,1,0,0,0,.68-.94V121.86a1,1,0,0,0-1.31-1L72.66,139.46a1,1,0,0,0-.68.94l-.11,14.84A1,1,0,0,0,73.18,156.2Z"/><path class="cls-1" d="M73.22,83.3l55.95-18.58a1,1,0,0,0,.68-.95V49a1,1,0,0,0-1.31-.95L72.7,66.56a1,1,0,0,0-.68.94l-.11,14.84A1,1,0,0,0,73.22,83.3Z"/></g></g></g></svg>