<svg id="Layer_1" data-name="Layer 1" xmlns="http://www.w3.org/2000/svg" viewBox="0 0 194.06 194"><defs><style>.cls-1{fill:none;stroke:#f2f2f2;stroke-linecap:round;stroke-miterlimit:10;stroke-width:3px;}.cls-2{fill:#f2f2f2;}</style></defs><g id="Main_Logo" data-name="Main Logo"><g id="Secondary_Logo" data-name="Secondary Logo"><g id="Cube"><line class="cls-1" x1="99.14" y1="37.83" x2="38.21" y2="58.06"/><line class="cls-1" x1="160.06" y1="136.19" x2="99.14" y2="156.42"/><line class="cls-1" x1="160.06" y1="58.06" x2="99.14" y2="78.3"/><line class="cls-1" x1="38.21" y1="136.19" x2="99.14" y2="156.42"/><line class="cls-1" x1="38.21" y1="58.06" x2="99.14" y2="78.3"/><line class="cls-1" x1="99.14" y1="37.83" x2="160.06" y2="58.06"/><line class="cls-1" x1="38.21" y1="58.06" x2="38.21" y2="136.19"/><line class="cls-1" x1="160.06" y1="58.06" x2="160.06" y2="136.19"/><line class="cls-1" x1="99.14" y1="78.3" x2="99.14" y2="156.42"/></g><g id="I_In_Cube" data-name="I In Cube"><path class="cls-2" d="M90.39,134.57V67h16.33v67.53Z"/><path class="cls-2" d="M75.49,147.25l47.94-15.92a1,1,0,0,0,.68-1V117.92a1,1,0,0,0-1.32-1L75,132.85a1,1,0,0,0-.69,1l-.09,12.49A1,1,0,0,0,75.49,147.25Z"/><path class="cls-2" d="M75.53,85.15l47.93-15.92a1,1,0,0,0,.69-1V55.81a1,1,0,0,0-1.32-1L75,70.75a1,1,0,0,0-.68,1l-.1,12.49A1,1,0,0,0,75.53,85.15Z"/></g></g></g></svg>